# xmcd
#
# Track frame offsets: 
#        150
#        10227
#        20432
#        30798
#        40482
#        53026
#        63818
#        74157
#        85376
#        96017
#        105979
#        117782
#        128926
#        139988
#        152104
#        161383
#        173415
#        185714
#        199536
#        210753
#        222448
#        233134
#        244561
#        253062
#        266347
#        279304
#        288453
#        298696
#        310561
#        320564
#        330968
#        340400
#
# Disc length: 4695 seconds
#
# Revision: 0
# Processed by: cddbd v1.5.2PL0 Copyright (c) Steve Scherf et al.
# Submitted via: ExactAudioCopy v1.3
#
DISCID=c0125520
DTITLE=Margaret Whiting and Jimmy Wakely - Margaret Whiting and Jimmy Wake
DTITLE=ly_Till We Meet Again
DYEAR=2006
DGENRE=Country
TTITLE0=Slipping Around
TTITLE1=Till We Meet Again
TTITLE2=Gomen-Nasai (Forgive Me)
TTITLE3=Six Times A Week And Twice On Sunday
TTITLE4=Star Of Hope
TTITLE5=Easter Parade
TTITLE6=Jimmy Wakely - Peter Cottontail
TTITLE7=The Gods Were Angry With Me
TTITLE8=There's A Silvery Moon On The Golden Gate
TTITLE9=Let Old Mother Nature Have Her Way
TTITLE10=Fools Paradise
TTITLE11=Margaret Whiting - Foggy River
TTITLE12=When Love Goes Wrong
TTITLE13=Wedding Bells
TTITLE14=I Learned To Love You Too Late
TTITLE15=Close Your Pretty Eyes
TTITLE16=Let's Live A Little
TTITLE17=Beyond The Reef
TTITLE18=Let's Go To Church (Next Sunday Morning)
TTITLE19=I Don't Want To Be Free
TTITLE20=Why Do You Say These Things (That Hurt Me So)
TTITLE21=Broken Down Merry-Go-Round
TTITLE22=Give Me More, More, More Of Your Kisses
TTITLE23=Silver Bells
TTITLE24=Christmas Candy
TTITLE25=A Bushel And A Peck
TTITLE26=Margaret Whiting - Try Me One More Time
TTITLE27=Why Am I Losing You
TTITLE28=When You And I Were Young Maggie Blues
TTITLE29=My Heart Knows
TTITLE30=I'll Never Slip Around Again
TTITLE31=The Tennessee Churchbells
EXTD=
EXTT0=
EXTT1=
EXTT2=
EXTT3=
EXTT4=
EXTT5=
EXTT6=
EXTT7=
EXTT8=
EXTT9=
EXTT10=
EXTT11=
EXTT12=
EXTT13=
EXTT14=
EXTT15=
EXTT16=
EXTT17=
EXTT18=
EXTT19=
EXTT20=
EXTT21=
EXTT22=
EXTT23=
EXTT24=
EXTT25=
EXTT26=
EXTT27=
EXTT28=
EXTT29=
EXTT30=
EXTT31=
PLAYORDER=
